HIERARCHY
ROOT Hips
{
	OFFSET 0.000000 0.000000 0.000000
	CHANNELS 6 Xposition Yposition Zposition Yrotation Xrotation Zrotation
	JOINT Chest
	{
		OFFSET 0.000000 -0.009281 11.569106
		CHANNELS 3 Yrotation Xrotation Zrotation
		JOINT Chest2
		{
			OFFSET -0.000000 0.016865 9.269641
			CHANNELS 3 Yrotation Xrotation Zrotation
			JOINT Chest3
			{
				OFFSET -0.000000 0.000001 8.374491
				CHANNELS 3 Yrotation Xrotation Zrotation
				JOINT Chest4
				{
					OFFSET -0.000000 0.000001 8.374493
					CHANNELS 3 Yrotation Xrotation Zrotation
					JOINT Neck
					{
						OFFSET -0.000000 0.000002 12.152554
						CHANNELS 3 Yrotation Xrotation Zrotation
						JOINT Head
						{
							OFFSET -0.000000 0.040101 7.802319
							CHANNELS 3 Yrotation Xrotation Zrotation
							End Site
							{
								OFFSET -0.000000 0.020947 14.853096
							}
						}
					}
					JOINT RightCollar
					{
						OFFSET 2.894404 0.000001 6.791374
						CHANNELS 3 Yrotation Xrotation Zrotation
						JOINT RightShoulder
						{
							OFFSET 13.574684 0.000001 0.000000
							CHANNELS 3 Yrotation Xrotation Zrotation
							JOINT RightElbow
							{
								OFFSET 23.923903 0.000002 0.000000
								CHANNELS 3 Yrotation Xrotation Zrotation
								JOINT RightWrist
								{
									OFFSET 19.846718 0.012767 0.000000
									CHANNELS 3 Yrotation Xrotation Zrotation
									End Site
									{
										OFFSET 14.973145 0.000001 0.000000
									}
								}
							}
						}
					}
					JOINT LeftCollar
					{
						OFFSET -2.894404 0.000001 6.791374
						CHANNELS 3 Yrotation Xrotation Zrotation
						JOINT LeftShoulder
						{
							OFFSET -13.574684 -0.000001 0.000000
							CHANNELS 3 Yrotation Xrotation Zrotation
							JOINT LeftElbow
							{
								OFFSET -23.923903 -0.000002 0.000000
								CHANNELS 3 Yrotation Xrotation Zrotation
								JOINT LeftWrist
								{
									OFFSET -19.846718 0.012763 0.000000
									CHANNELS 3 Yrotation Xrotation Zrotation
									End Site
									{
										OFFSET -14.973145 -0.000001 0.000000
									}
								}
							}
						}
					}
				}
			}
		}
	}
	JOINT RightHip
	{
		OFFSET 9.469263 0.004643 0.045487
		CHANNELS 3 Yrotation Xrotation Zrotation
		JOINT RightKnee
		{
			OFFSET 0.000000 0.002661 -40.478676
			CHANNELS 3 Yrotation Xrotation Zrotation
			JOINT RightAnkle
			{
				OFFSET 0.000000 0.049106 -35.224068
				CHANNELS 3 Yrotation Xrotation Zrotation
				JOINT RightToe
				{
					OFFSET -0.000001 12.539529 -6.151390
					CHANNELS 3 Yrotation Xrotation Zrotation
					End Site
					{
						OFFSET -0.000001 5.044994 -1.291870
					}
				}
			}
		}
	}
	JOINT LeftHip
	{
		OFFSET -9.469263 0.004641 0.045487
		CHANNELS 3 Yrotation Xrotation Zrotation
		JOINT LeftKnee
		{
			OFFSET 0.000000 0.002661 -40.478676
			CHANNELS 3 Yrotation Xrotation Zrotation
			JOINT LeftAnkle
			{
				OFFSET 0.000000 0.049106 -35.224068
				CHANNELS 3 Yrotation Xrotation Zrotation
				JOINT LeftToe
				{
					OFFSET -0.000001 12.539529 -6.151390
					CHANNELS 3 Yrotation Xrotation Zrotation
					End Site
					{
						OFFSET -0.000001 5.044994 -1.291870
					}
				}
			}
		}
	}
}
MOTION
Frames: 8
Frame Time: 0.016667
10.526444 7.483921 83.132851 -3.748165 -1.276345 -104.260324 -0.882685 -2.838509 1.883784 -0.376938 -1.266240 0.811761 -0.376939 -1.266240 0.811762 -0.281010 -0.950184 0.608014 3.736723 -24.007152 -9.660593 4.273956 -8.429947 -16.396848 9.742345 6.751065 -6.790674 55.079120 46.128178 23.723260 43.092510 35.013066 54.472015 -7.738612 40.198173 13.091993 -8.240505 -4.272845 -5.060989 -48.987035 28.992944 -14.938267 -40.807361 3.502085 -41.770100 -24.625904 36.241527 -6.336619 -0.785854 -5.053434 -2.726290 1.982668 -3.552722 -11.855399 -0.394709 4.116568 2.277394 -0.110367 -0.038674 -0.000506 -0.632103 -6.280997 1.594377 0.294858 -0.507029 -1.290584 -0.773746 2.828341 -0.353344 0.049459 -0.002525 0.011468 
10.509978 7.444271 83.132896 -3.769846 -1.280716 -104.403915 -0.880890 -2.817139 1.908900 -0.378805 -1.256419 0.825449 -0.378805 -1.256419 0.825446 -0.282395 -0.942829 0.618281 3.687551 -24.056867 -9.593917 4.207496 -8.523851 -16.289349 9.806797 6.031638 -6.685926 56.670233 46.105481 24.688545 43.999208 34.398393 55.844064 -9.297832 41.003893 14.015901 -8.293538 -4.260326 -5.029369 -49.550116 29.378163 -15.098538 -40.558783 4.498314 -42.603674 -24.773113 36.340192 -6.726273 -0.766389 -5.055843 -2.680932 1.968594 -3.546493 -11.766416 -0.403705 4.105847 2.301078 -0.105015 -0.039418 -0.001157 -0.629579 -6.316891 1.694709 0.316341 -0.503462 -1.243334 -0.800630 2.840715 -0.353819 0.028779 -0.009873 0.010851 
10.492779 7.404004 83.131737 -3.803110 -1.288242 -104.559179 -0.870133 -2.778798 1.926513 -0.376377 -1.239514 0.835644 -0.376377 -1.239514 0.835647 -0.280577 -0.930152 0.625946 3.607081 -24.125495 -9.480550 4.098363 -8.653739 -16.105837 9.855219 5.075253 -6.550583 58.403472 46.256182 25.676105 44.280694 33.471492 56.477175 -10.179064 41.393549 14.622248 -8.411561 -4.334747 -4.985309 -50.319718 29.748732 -15.371054 -40.158210 5.705487 -43.536121 -24.944508 36.305109 -7.008580 -0.749056 -5.060097 -2.626803 1.960058 -3.557602 -11.650398 -0.421457 4.100823 2.287768 -0.098017 -0.039389 -0.002334 -0.628150 -6.363295 1.783147 0.337531 -0.506812 -1.189450 -0.820126 2.862250 -0.336741 0.006901 -0.017412 0.010291 
10.475991 7.366670 83.129898 -3.852278 -1.300814 -104.721840 -0.859720 -2.730461 1.939877 -0.373698 -1.218189 0.844273 -0.373698 -1.218188 0.844273 -0.278580 -0.914160 0.632435 3.511119 -24.205429 -9.328623 3.971934 -8.804302 -15.856914 9.925881 4.148030 -6.404327 59.904283 46.387489 26.378698 44.180860 32.442381 56.431699 -10.015541 41.537847 14.875525 -8.590482 -4.417576 -4.941591 -51.151959 30.197830 -15.650829 -39.896638 7.019191 -44.472649 -25.002771 36.254866 -7.255851 -0.736112 -5.075710 -2.567196 1.959844 -3.578715 -11.515707 -0.451391 4.100130 2.231230 -0.086423 -0.039818 -0.004517 -0.636192 -6.424328 1.854369 0.371600 -0.515116 -1.125750 -0.836803 2.890922 -0.304526 -0.015448 -0.025201 0.009125 
10.460787 7.329418 83.126938 -3.916440 -1.320642 -104.888852 -0.862063 -2.698259 1.959336 -0.377084 -1.203639 0.855526 -0.377084 -1.203639 0.855529 -0.281119 -0.903260 0.640880 3.420369 -24.273761 -9.147269 3.860600 -8.931536 -15.553900 10.007930 3.803714 -6.359506 60.547325 46.078826 26.116929 44.186741 31.512024 55.985155 -8.670609 41.696160 14.574872 -8.761154 -4.499944 -4.945819 -52.082938 30.812530 -15.940628 -39.839691 8.360492 -45.355929 -25.024823 36.399632 -7.647676 -0.730293 -5.098202 -2.495294 1.972426 -3.619963 -11.380521 -0.495078 4.109746 2.199747 -0.067658 -0.040559 -0.005377 -0.644972 -6.502346 1.923637 0.409716 -0.527239 -1.061149 -0.847666 2.929371 -0.265785 -0.038690 -0.034398 0.008363 
10.444533 7.294014 83.121803 -3.982236 -1.343519 -105.063336 -0.875259 -2.676329 1.983484 -0.385721 -1.193889 0.868325 -0.385721 -1.193890 0.868327 -0.287584 -0.895968 0.650467 3.333818 -24.330071 -8.945342 3.760370 -9.035195 -15.212969 10.056788 3.748552 -6.438574 60.602855 45.448495 25.183946 44.523298 30.655545 55.238745 -6.514622 41.774000 13.521450 -8.883852 -4.629511 -4.975317 -53.174751 31.544324 -16.297210 -39.906955 9.765031 -46.200492 -25.066239 36.900456 -8.169337 -0.721306 -5.105633 -2.394018 1.987052 -3.693467 -11.252585 -0.548832 4.136340 2.152124 -0.045414 -0.043284 -0.006073 -0.653706 -6.579225 1.994223 0.446317 -0.547696 -0.996991 -0.843782 2.980699 -0.220649 -0.066556 -0.047300 0.008796 
10.421083 7.259399 83.115761 -4.057155 -1.366297 -105.234220 -0.889588 -2.660128 2.007299 -0.396003 -1.187814 0.880361 -0.396003 -1.187814 0.880362 -0.295280 -0.891434 0.659479 3.241306 -24.379380 -8.727744 3.652428 -9.125823 -14.845481 10.111074 3.554467 -6.484119 60.429655 44.915245 24.016265 44.800065 29.700576 54.055435 -3.694767 41.341520 11.570751 -8.984418 -4.812048 -4.973425 -54.454667 32.205230 -16.781437 -39.977015 11.330068 -47.069610 -25.167377 37.511908 -8.775621 -0.714995 -5.094448 -2.260066 2.000692 -3.811463 -11.133846 -0.607644 4.176736 2.095274 -0.020464 -0.043982 -0.004526 -0.668683 -6.654251 2.044635 0.491034 -0.579016 -0.940026 -0.833320 3.035299 -0.154433 -0.096537 -0.058758 0.008571 
10.389959 7.228124 83.110031 -4.149149 -1.388378 -105.399641 -0.900636 -2.650800 2.033716 -0.404450 -1.184964 0.892837 -0.404450 -1.184964 0.892839 -0.301595 -0.889316 0.668821 3.138792 -24.422456 -8.497141 3.529017 -9.205299 -14.457207 10.120226 3.164792 -6.561181 60.349120 44.490715 22.930477 44.752680 28.743973 52.668832 -0.358319 39.786566 7.887917 -9.126625 -4.965455 -4.983116 -55.818696 32.674816 -17.357886 -39.976288 13.145564 -47.959929 -25.294537 38.074937 -9.361911 -0.710555 -5.079159 -2.116357 2.014477 -3.962338 -11.016547 -0.675017 4.228685 2.008387 0.005376 -0.044204 -0.002306 -0.690351 -6.722778 2.063473 0.534335 -0.645674 -0.885466 -0.805795 3.102261 -0.061978 -0.130174 -0.066370 0.006354 
